<svg width="32" height="32" viewBox="0 0 32 32" fill="none" xmlns="http://www.w3.org/2000/svg">
<mask id="mask0_203_12" style="mask-type:alpha" maskUnits="userSpaceOnUse" x="0" y="0" width="32" height="32">
<rect width="32" height="32" fill="#D9D9D9"/>
</mask>
<g mask="url(#mask0_203_12)">
<path d="M10.6667 24H21.3333V21.3333H10.6667V24ZM10.6667 18.6667H21.3333V16H10.6667V18.6667ZM8.00001 29.3333C7.26668 29.3333 6.6389 29.0722 6.11668 28.55C5.59445 28.0278 5.33334 27.4 5.33334 26.6667V5.33333C5.33334 4.6 5.59445 3.97222 6.11668 3.45C6.6389 2.92778 7.26668 2.66667 8.00001 2.66667H18.6667L26.6667 10.6667V26.6667C26.6667 27.4 26.4056 28.0278 25.8833 28.55C25.3611 29.0722 24.7333 29.3333 24 29.3333H8.00001ZM17.3333 12V5.33333H8.00001V26.6667H24V12H17.3333Z" fill="#203562"/>
</g>
</svg>
